<svg xmlns="http://www.w3.org/2000/svg" viewBox="0 0 1200 800" role="img" aria-label="Community fallback image">
  <defs>
    <linearGradient id="bg" x1="0" x2="1" y1="0" y2="1">
      <stop offset="0" stop-color="#eff6ff"/>
      <stop offset="1" stop-color="#e8f7f1"/>
    </linearGradient>
  </defs>
  <rect width="1200" height="800" fill="url(#bg)"/>
  <circle cx="600" cy="360" r="120" fill="#0e9f6e"/>
  <circle cx="600" cy="322" r="50" fill="#ffffff"/>
  <path d="M500 450c18-66 182-66 200 0" fill="#ffffff"/>
  <circle cx="360" cy="430" r="90" fill="#2563eb" opacity=".9"/>
  <circle cx="360" cy="402" r="38" fill="#ffffff"/>
  <path d="M290 500c15-50 125-50 140 0" fill="#ffffff"/>
  <circle cx="840" cy="430" r="90" fill="#102033" opacity=".92"/>
  <circle cx="840" cy="402" r="38" fill="#ffffff"/>
  <path d="M770 500c15-50 125-50 140 0" fill="#ffffff"/>
  <path d="M446 388c65-65 243-65 308 0" fill="none" stroke="#102033" stroke-width="18" stroke-linecap="round" opacity=".18"/>
  <path d="M430 530c85 80 255 80 340 0" fill="none" stroke="#0e9f6e" stroke-width="18" stroke-linecap="round" opacity=".3"/>
</svg>
